<?xml version="1.0" encoding="UTF-8" standalone="no"?>
<!-- Created with Inkscape (http://www.inkscape.org/) -->

<svg
   xmlns:dc="http://purl.org/dc/elements/1.1/"
   xmlns:cc="http://creativecommons.org/ns#"
   xmlns:rdf="http://www.w3.org/1999/02/22-rdf-syntax-ns#"
   xmlns:svg="http://www.w3.org/2000/svg"
   xmlns="http://www.w3.org/2000/svg"
   xmlns:sodipodi="http://sodipodi.sourceforge.net/DTD/sodipodi-0.dtd"
   xmlns:inkscape="http://www.inkscape.org/namespaces/inkscape"
   width="60"
   height="60"
   id="svg3774"
   version="1.1"
   inkscape:version="0.48.4 r9939"
   sodipodi:docname="NCH.svg"
   inkscape:export-filename="/home/marcus/HistoGlobe/master/planning/test3_interaction/toolbar.png"
   inkscape:export-xdpi="300"
   inkscape:export-ydpi="300">
  <defs
     id="defs3776">
    <inkscape:path-effect
       effect="skeletal"
       id="path-effect3777"
       is_visible="true"
       pattern="M 0,5 C 0,2.24 2.24,0 5,0 C 7.76,0 10,2.24 10,5 C 10,7.76 7.76,10 5,10 C 2.24,10 0,7.76 0,5 z"
       copytype="single_stretched"
       prop_scale="1"
       scale_y_rel="false"
       spacing="0"
       normal_offset="0"
       tang_offset="0"
       prop_units="false"
       vertical_pattern="false"
       fuse_tolerance="0" />
    <marker
       inkscape:stockid="DotL"
       orient="auto"
       refY="0"
       refX="0"
       id="DotL"
       style="overflow:visible">
      <path
         id="path3895"
         d="M -2.5,-1 C -2.5,1.76 -4.740000000000001,4 -7.5,4 C -10.26,4 -12.5,1.76 -12.5,-1 C -12.5,-3.76 -10.26,-6 -7.5,-6 C -4.740000000000001,-6 -2.5,-3.76 -2.5,-1 z"
         style="fill-rule:evenodd;stroke:#000000;stroke-width:1pt"
         transform="matrix(0.8,0,0,0.8,5.920000000000001,0.8)"
         inkscape:connector-curvature="0" />
    </marker>
  </defs>
  <sodipodi:namedview
     id="base"
     pagecolor="#000000"
     bordercolor="#666666"
     borderopacity="1.0"
     inkscape:pageopacity="1"
     inkscape:pageshadow="2"
     inkscape:zoom="8.576943366655088"
     inkscape:cx="20.88158650886275"
     inkscape:cy="26.76479238082453"
     inkscape:document-units="px"
     inkscape:current-layer="g4274"
     showgrid="true"
     inkscape:window-width="1600"
     inkscape:window-height="834"
     inkscape:window-x="0"
     inkscape:window-y="27"
     inkscape:window-maximized="1"
     fit-margin-top="0"
     fit-margin-left="0"
     fit-margin-right="0"
     fit-margin-bottom="0"
     inkscape:snap-global="true">
    <inkscape:grid
       type="xygrid"
       id="grid3009"
       empspacing="5"
       visible="true"
       enabled="true"
       snapvisiblegridlinesonly="true"
       originx="117px"
       originy="12px" />
  </sodipodi:namedview>
  <metadata
     id="metadata3779">
    <rdf:RDF>
      <cc:Work
         rdf:about="">
        <dc:format>image/svg+xml</dc:format>
        <dc:type
           rdf:resource="http://purl.org/dc/dcmitype/StillImage" />
        <dc:title></dc:title>
      </cc:Work>
    </rdf:RDF>
  </metadata>
  <g
     inkscape:label="Layer 1"
     inkscape:groupmode="layer"
     id="layer1"
     transform="translate(103.0844923628837,-83.02807746695452)">
    <g
       id="g3842"
       transform="translate(-37.1392822265625,0)" />
    <g
       id="g4677"
       transform="translate(0,120)" />
    <g
       transform="matrix(0.5689364978111014,0,0,0.5689364978111014,-40.94089765209846,120)"
       style="fill:#d5c900;fill-opacity:1;stroke:none"
       inkscape:export-ydpi="300"
       inkscape:export-xdpi="300"
       inkscape:export-filename="/home/marcus/HistoGlobe/master/planning/test3_interaction/toolbar_add_country.png"
       id="g4828" />
    <g
       transform="translate(70.12501940598501,117.3788065084621)"
       id="g4836">
      <g
         id="g4844" />
    </g>
    <g
       id="g4149"
       transform="matrix(-1,0,0,1,-146.1689847257674,0)">
      <path
         sodipodi:nodetypes="cc"
         transform="matrix(-1.767139278371328,0,0,1,-227.5904551745957,104.7084894192824)"
         inkscape:connector-curvature="0"
         style="fill:#ffffff;fill-opacity:1;stroke:#ffffff;stroke-width:4.5135250092;stroke-linecap:round;stroke-linejoin:bevel;stroke-miterlimit:4;stroke-opacity:1;stroke-dasharray:none"
         d="M -72.15388417444208,21.02807816359892 L -102.711747191198,21.02807816359892"
         id="path3806" />
      <path
         sodipodi:open="true"
         sodipodi:end="6.2764103"
         sodipodi:start="0"
         transform="translate(-102.3489977492362,96.40017231920944)"
         d="M 38.24206256866455,29.33639526367187 A 8.977557182312011,8.977557182312011 0 1 1 38.24185653127316,29.27557271460888"
         sodipodi:ry="8.977557182312012"
         sodipodi:rx="8.977557182312012"
         sodipodi:cy="29.33639526367188"
         sodipodi:cx="29.26450538635254"
         id="path3779"
         style="fill:#ffffff;fill-opacity:1;fill-rule:nonzero;stroke:#ffffff;stroke-width:4;stroke-linecap:round;stroke-linejoin:bevel;stroke-miterlimit:4;stroke-opacity:1;stroke-dasharray:none;stroke-dashoffset:28.8;marker-start:none"
         sodipodi:type="arc" />
      <g
         id="g4274"
         transform="translate(-1.999999907572814,2)">
        <path
           style="fill:#ffffff;fill-opacity:1"
           transform="matrix(-0.2727168200630748,0,0,0.272716820063075,-71.15331363834864,83.08381382281092)"
           inkscape:connector-curvature="0"
           d="M 50.011,0 C 47.12710000000001,0 44.2971,0.25936 41.54680000000001,0.7280999999999997 L 40.20440000000001,14.9491 C 37.36000000000001,15.74197 34.66790000000001,16.8506 32.14980000000002,18.2711 L 21.1598,9.1926 C 16.5179,12.4786 12.45440000000001,16.5185 9.168800000000004,21.1606 L 18.27,32.15060000000001 C 16.8512,34.6657 15.718,37.36460000000001 14.9253,40.20520000000001 L 0.7283000000000042,41.55520000000002 C 0.2593700000000044,44.30520000000002 0,47.13520000000001 0,50.04520000000001 C 0,52.93490000000002 0.2577700000000044,55.75370000000001 0.7284000000000041,58.50930000000001 L 14.9264,59.85180000000001 C 15.71914000000001,62.69240000000002 16.8524,65.39130000000001 18.2711,67.9064 L 9.192600000000004,78.89640000000001 C 12.4722,83.5258 16.5087,87.5849 21.1376,90.8644 L 32.15060000000001,81.76310000000002 C 34.67030000000001,83.18480000000002 37.3588,84.31460000000002 40.20520000000001,85.10780000000002 L 41.5476,99.32880000000001 C 44.29790000000001,99.79760000000003 47.12790000000001,100.0342 50.0118,100.0342 C 52.8956,100.0342 55.7029,99.79760000000003 58.4532,99.32880000000001 L 59.7956,85.10780000000002 C 62.6421,84.31460000000002 65.3305,83.18480000000002 67.8502,81.76310000000002 L 78.8632,90.8644 C 83.4925,87.58470000000001 87.52900000000001,83.52560000000001 90.80819999999998,78.89640000000001 L 81.72969999999999,67.9064 C 83.14849999999998,65.39130000000001 84.2817,62.69240000000002 85.07439999999998,59.85180000000002 L 99.2724,58.50930000000002 C 99.74303,55.75370000000003 100.0005,52.93490000000002 100.0005,50.04520000000002 C 100.0005,47.16040000000002 99.74142999999999,44.33210000000002 99.2724,41.58100000000002 L 85.07439999999998,40.23860000000002 C 84.28166,37.39800000000002 83.14839999999999,34.69910000000002 81.72969999999999,32.18400000000002 L 90.83089999999998,21.19400000000002 C 87.5454,16.55170000000002 83.48189999999999,12.51190000000002 78.8399,9.226000000000016 L 67.8499,18.30450000000002 C 65.3318,16.88400000000002 62.63970000000001,15.77540000000002 59.79530000000001,14.98250000000002 L 58.45290000000001,0.7615000000000192 C 55.70260000000001,0.2927600000000194 52.89530000000002,0 50.01150000000001,0 z M 50.011,30.967 C 60.527,30.967 69.033,39.495 69.033,50.011 C 69.033,60.527 60.52770000000001,69.05499999999999 50.011,69.05499999999999 C 39.49500000000001,69.05499999999999 30.967,60.527 30.967,50.011 C 30.967,39.495 39.49500000000001,30.96699999999999 50.011,30.96699999999999 z"
           id="path4840" />
      </g>
    </g>
  </g>
</svg>
