<?xml version="1.0" encoding="UTF-8" standalone="no"?>
<!-- Created with Inkscape (http://www.inkscape.org/) -->

<svg
   xmlns:dc="http://purl.org/dc/elements/1.1/"
   xmlns:cc="http://creativecommons.org/ns#"
   xmlns:rdf="http://www.w3.org/1999/02/22-rdf-syntax-ns#"
   xmlns:svg="http://www.w3.org/2000/svg"
   xmlns="http://www.w3.org/2000/svg"
   xmlns:sodipodi="http://sodipodi.sourceforge.net/DTD/sodipodi-0.dtd"
   xmlns:inkscape="http://www.inkscape.org/namespaces/inkscape"
   width="46.3676643371582"
   height="40.83570098876953"
   id="svg3774"
   version="1.1"
   inkscape:version="0.48.4 r9939"
   sodipodi:docname="SEP.svg"
   inkscape:export-filename="/home/marcus/HistoGlobe/master/planning/test3_interaction/toolbar.png"
   inkscape:export-xdpi="300"
   inkscape:export-ydpi="300">
  <defs
     id="defs3776">
    <marker
       inkscape:stockid="DotL"
       orient="auto"
       refY="0"
       refX="0"
       id="DotL"
       style="overflow:visible">
      <path
         id="path3895"
         d="M -2.5,-1 C -2.5,1.76 -4.740000000000001,4 -7.5,4 C -10.26,4 -12.5,1.76 -12.5,-1 C -12.5,-3.76 -10.26,-6 -7.5,-6 C -4.740000000000001,-6 -2.5,-3.76 -2.5,-1 z"
         style="fill-rule:evenodd;stroke:#000000;stroke-width:1pt"
         transform="matrix(0.8,0,0,0.8,5.920000000000001,0.8)"
         inkscape:connector-curvature="0" />
    </marker>
  </defs>
  <sodipodi:namedview
     id="base"
     pagecolor="#000000"
     bordercolor="#666666"
     borderopacity="1.0"
     inkscape:pageopacity="1"
     inkscape:pageshadow="2"
     inkscape:zoom="2.799999995567724"
     inkscape:cx="-78.6737854599624"
     inkscape:cy="82.96465249623229"
     inkscape:document-units="px"
     inkscape:current-layer="g4820"
     showgrid="true"
     inkscape:window-width="1600"
     inkscape:window-height="834"
     inkscape:window-x="0"
     inkscape:window-y="27"
     inkscape:window-maximized="1"
     fit-margin-top="0"
     fit-margin-left="0"
     fit-margin-right="0"
     fit-margin-bottom="0"
     inkscape:snap-global="true">
    <inkscape:grid
       type="xygrid"
       id="grid3009"
       empspacing="5"
       visible="true"
       enabled="true"
       snapvisiblegridlinesonly="true"
       originx="-43.32841671498292px"
       originy="5.416664523797678px" />
  </sodipodi:namedview>
  <metadata
     id="metadata3779">
    <rdf:RDF>
      <cc:Work
         rdf:about="">
        <dc:format>image/svg+xml</dc:format>
        <dc:type
           rdf:resource="http://purl.org/dc/dcmitype/StillImage" />
        <dc:title />
      </cc:Work>
    </rdf:RDF>
  </metadata>
  <g
     inkscape:label="Layer 1"
     inkscape:groupmode="layer"
     id="layer1"
     transform="translate(-57.24392435209919,-95.60904257732579)">
    <g
       id="g3842"
       transform="translate(-37.1392822265625,0)" />
    <g
       id="g4677"
       transform="translate(0,120)" />
    <g
       transform="matrix(0.5689364978111014,0,0,0.5689364978111014,99.05910234790151,120)"
       style="fill:#d5c900;fill-opacity:1;stroke:none"
       inkscape:export-ydpi="300"
       inkscape:export-xdpi="300"
       inkscape:export-filename="/home/marcus/HistoGlobe/master/planning/test3_interaction/toolbar_add_country.png"
       id="g4820" />
    <g
       transform="matrix(-1,0,0,1,97.83101323545818,120)"
       id="g4902">
      <path
         style="font-size:medium;font-style:normal;font-variant:normal;font-weight:normal;font-stretch:normal;text-indent:0;text-align:start;text-decoration:none;line-height:normal;letter-spacing:normal;word-spacing:normal;text-transform:none;direction:ltr;block-progression:tb;writing-mode:lr-tb;text-anchor:start;baseline-shift:baseline;color:#000000;fill:#ffffff;fill-opacity:1;fill-rule:nonzero;stroke:none;stroke-width:4.7991757393;marker:none;visibility:visible;display:inline;overflow:visible;enable-background:accumulate;font-family:Sans;-inkscape-font-specification:Sans"
         d="M 187.8125,129.59375 A 1.667119775016407,2.39982782843113 0 0 0 187.03125,130.03125 L 175.4375,141.625 C 173.8722530971807,140.6089084815032 172.0051432642059,140 170,140 C 165.3124148337382,140 161.3953007124767,143.2412426047199 160.3125,147.59375 L 145,147.59375 A 1.671581148909221,2.40625 0 0 0 145,152.40625 L 160.3125,152.40625 C 161.3953007124767,156.7587573952801 165.3124148337382,160 170,160 C 172.0051432642059,160 173.8722530971808,159.3910915184968 175.4375,158.375 L 187.03125,169.96875 A 1.667119775016407,2.39982782843113 0 0 0 188.15625,170.40625 A 1.667119775016407,2.39982782843113 0 0 0 188.96875,166.03125 L 178.375,155.4375 C 179.3910915184968,153.8722530971807 180,152.0051432642059 180,150 C 180,147.9948567357941 179.3910915184968,146.1277469028193 178.375,144.5625 L 188.96875,133.96875 A 1.667119775016407,2.39982782843113 0 0 0 188.15625,129.59375 A 1.667119775016407,2.39982782843113 0 0 0 187.8125,129.59375 z"
         transform="matrix(-1,0,0,1,183.9155077344498,-153.9719194835465)"
         id="path4904"
         inkscape:connector-curvature="0" />
    </g>
  </g>
</svg>
