<?xml version="1.0" encoding="UTF-8" standalone="no"?>
<!-- Created with Inkscape (http://www.inkscape.org/) -->

<svg
   xmlns:dc="http://purl.org/dc/elements/1.1/"
   xmlns:cc="http://creativecommons.org/ns#"
   xmlns:rdf="http://www.w3.org/1999/02/22-rdf-syntax-ns#"
   xmlns:svg="http://www.w3.org/2000/svg"
   xmlns="http://www.w3.org/2000/svg"
   xmlns:sodipodi="http://sodipodi.sourceforge.net/DTD/sodipodi-0.dtd"
   xmlns:inkscape="http://www.inkscape.org/namespaces/inkscape"
   width="54.03711700439453"
   height="37.65165328979492"
   id="svg3774"
   version="1.1"
   inkscape:version="0.48.4 r9939"
   sodipodi:docname="CHN.svg"
   inkscape:export-filename="/home/marcus/HistoGlobe/master/planning/test3_interaction/toolbar.png"
   inkscape:export-xdpi="300"
   inkscape:export-ydpi="300">
  <defs
     id="defs3776">
    <marker
       inkscape:stockid="DotL"
       orient="auto"
       refY="0"
       refX="0"
       id="DotL"
       style="overflow:visible">
      <path
         id="path3895"
         d="M -2.5,-1 C -2.5,1.76 -4.740000000000001,4 -7.5,4 C -10.26,4 -12.5,1.76 -12.5,-1 C -12.5,-3.76 -10.26,-6 -7.5,-6 C -4.740000000000001,-6 -2.5,-3.76 -2.5,-1 z"
         style="fill-rule:evenodd;stroke:#000000;stroke-width:1pt"
         transform="matrix(0.8,0,0,0.8,5.920000000000001,0.8)"
         inkscape:connector-curvature="0" />
    </marker>
  </defs>
  <sodipodi:namedview
     id="base"
     pagecolor="#000000"
     bordercolor="#666666"
     borderopacity="1.0"
     inkscape:pageopacity="1"
     inkscape:pageshadow="2"
     inkscape:zoom="15.8391918526126"
     inkscape:cx="23.88426160787086"
     inkscape:cy="22.46675603154727"
     inkscape:document-units="px"
     inkscape:current-layer="g4860"
     showgrid="true"
     inkscape:window-width="1600"
     inkscape:window-height="834"
     inkscape:window-x="0"
     inkscape:window-y="27"
     inkscape:window-maximized="1"
     fit-margin-top="0"
     fit-margin-left="0"
     fit-margin-right="0"
     fit-margin-bottom="0"
     inkscape:snap-global="true"
     borderlayer="false"
     inkscape:showpageshadow="true"
     showborder="true">
    <inkscape:grid
       type="xygrid"
       id="grid3009"
       empspacing="5"
       visible="true"
       enabled="true"
       snapvisiblegridlinesonly="true"
       originx="-182.9814390931599px"
       originy="-4.999997401764687px" />
  </sodipodi:namedview>
  <metadata
     id="metadata3779">
    <rdf:RDF>
      <cc:Work
         rdf:about="">
        <dc:format>image/svg+xml</dc:format>
        <dc:type
           rdf:resource="http://purl.org/dc/dcmitype/StillImage" />
        <dc:title />
      </cc:Work>
    </rdf:RDF>
  </metadata>
  <g
     inkscape:label="Layer 1"
     inkscape:groupmode="layer"
     id="layer1"
     transform="translate(-196.8969467302761,-88.37642760088489)">
    <g
       id="g3842"
       transform="translate(-37.1392822265625,0)" />
    <g
       id="g4677"
       transform="translate(0,120)" />
    <g
       transform="matrix(0.5689364978111014,0,0,0.5689364978111014,239.0591023479016,120)"
       style="fill:#d5c900;fill-opacity:1;stroke:none"
       inkscape:export-ydpi="300"
       inkscape:export-xdpi="300"
       inkscape:export-filename="/home/marcus/HistoGlobe/master/planning/test3_interaction/toolbar_add_country.png"
       id="g4812" />
    <g
       id="g4860"
       transform="translate(0,120)">
      <path
         style="font-size:medium;font-style:normal;font-variant:normal;font-weight:normal;font-stretch:normal;text-indent:0;text-align:start;text-decoration:none;line-height:normal;letter-spacing:normal;word-spacing:normal;text-transform:none;direction:ltr;block-progression:tb;writing-mode:lr-tb;text-anchor:start;baseline-shift:baseline;color:#000000;fill:#D57D00;fill-opacity:1;fill-rule:nonzero;stroke:none;stroke-width:3.9815695286;marker:none;visibility:visible;display:inline;overflow:visible;enable-background:accumulate;font-family:Sans;-inkscape-font-specification:Sans"
         d="M 310,140 C 305.1675084389805,140 301.1512126516679,143.4431686775675 300.21875,148 L 285,148 A 2.018558770732238,2 0 0 0 285,152 L 300.21875,152 C 301.1512126516679,156.5568313224325 305.1675084389806,160 310,160 C 314.8324915610195,160 318.8487869832536,156.5568313224325 319.78125,152 L 335,152 A 2.018558770732238,2 0 0 0 335,148 L 319.78125,148 C 318.8487869832537,143.4431686775675 314.8324915610194,140 310,140 z"
         transform="translate(-86.08449449899163,-153.9719194835465)"
         id="path4862"
         inkscape:connector-curvature="0" />
      <g
         id="g3004"
         transform="translate(-1.847982708933671,-2.651650437144767)">
        <g
           id="text4866"
           style="font-size:12px;font-style:normal;font-variant:normal;font-weight:normal;font-stretch:normal;text-indent:0;text-align:center;text-decoration:none;line-height:125%;letter-spacing:0px;word-spacing:0px;text-transform:none;direction:ltr;block-progression:tb;writing-mode:lr-tb;text-anchor:middle;baseline-shift:baseline;color:#000000;fill:#D57D00;fill-opacity:1;fill-rule:nonzero;stroke:none;stroke-width:1px;marker:none;visibility:visible;display:inline;overflow:visible;enable-background:accumulate;font-family:Latin Modern Sans;-inkscape-font-specification:Latin Modern Sans"
           transform="matrix(1.801152737752159,0,0,1.801152737752159,-331.7444044399471,-90.20436116251167)">
          <path
             transform="matrix(1.333333333333333,0,0,1.333333333333333,-98.4003097330729,-15.03341674804688)"
             inkscape:connector-curvature="0"
             id="path4957"
             style="fill:#D57D00;marker:none;font-family:Latin Modern Sans;-inkscape-font-specification:Latin Modern Sans"
             d="M 302.5209291992188,45.10025024414063 L 299.3889291992188,36.77225024414062 L 298.3329291992188,36.77225024414062 L 295.2009291992188,45.10025024414063 L 296.0889291992187,45.10025024414063 L 297.0129291992188,42.65225024414063 L 300.5049291992187,42.65225024414063 L 301.4169291992188,45.10025024414063 L 302.5209291992188,45.10025024414063 M 300.2409291992187,41.98025024414063 L 297.2649291992187,41.98025024414063 C 297.8769285872187,40.26425196014064 297.4329298112187,41.52424852814063 298.0449291992188,39.80825024414063 C 298.2969289472188,39.10025095214063 298.6689292832188,38.08024980014063 298.7529291992187,37.63625024414064 L 298.7649291992187,37.63625024414064 C 298.7889291752188,37.80425007614064 298.8729294752188,38.10425103614063 299.1489291992187,38.89625024414063 L 300.2409291992187,41.98025024414063" />
        </g>
        <g
           id="text4870"
           style="font-size:12px;font-style:normal;font-variant:normal;font-weight:normal;font-stretch:normal;text-indent:0;text-align:center;text-decoration:none;line-height:125%;letter-spacing:0px;word-spacing:0px;text-transform:none;direction:ltr;block-progression:tb;writing-mode:lr-tb;text-anchor:middle;baseline-shift:baseline;color:#000000;fill:#D57D00;fill-opacity:1;fill-rule:nonzero;stroke:none;stroke-width:1px;marker:none;visibility:visible;display:inline;overflow:visible;enable-background:accumulate;font-family:Latin Modern Sans;-inkscape-font-specification:Latin Modern Sans"
           transform="matrix(2.401536983669545,0,0,2.401536983669545,-474.1388643338098,-117.2818408960255)">
          <path
             inkscape:connector-curvature="0"
             id="path4960"
             style="fill:#D57D00;marker:none;font-family:Latin Modern Sans;-inkscape-font-specification:Latin Modern Sans"
             d="M 302.1849291992188,42.84425024414063 C 302.1849291992188,41.80025128814062 301.1409279272187,40.94825004014062 299.8689291992188,40.74425024414063 C 300.9609281072188,40.46825052014063 301.8609291992187,39.77224933214063 301.8609291992187,38.86025024414063 C 301.8609291992187,37.75625134814062 300.5769274952187,36.77225024414062 298.8729291992187,36.77225024414062 L 296.0289291992187,36.77225024414062 L 296.0289291992187,45.10025024414063 L 299.1969291992188,45.10025024414063 C 300.9249274712187,45.10025024414063 302.1849291992188,44.02024906814062 302.1849291992188,42.84425024414063 M 300.9249291992188,38.87225024414063 C 300.9249291992188,39.59224952414063 300.0729275432187,40.40825024414063 298.4169291992188,40.40825024414063 L 297.0249291992188,40.40825024414063 L 297.0249291992188,37.44425024414064 L 298.5369291992188,37.44425024414064 C 299.8689278672188,37.44425024414064 300.9249291992188,38.08025103614063 300.9249291992188,38.87225024414063 M 301.2129291992188,42.83225024414063 C 301.2129291992188,43.73224934414063 300.1569279032187,44.42825024414063 298.8609291992187,44.42825024414063 L 297.0249291992188,44.42825024414063 L 297.0249291992188,41.14025024414063 L 298.7649291992187,41.14025024414063 C 300.0369279272188,41.14025024414063 301.2129291992188,41.87225120414063 301.2129291992188,42.83225024414063" />
        </g>
      </g>
    </g>
  </g>
</svg>
