<?xml version="1.0" encoding="UTF-8" standalone="no"?>
<!-- Created with Inkscape (http://www.inkscape.org/) -->

<svg
   xmlns:dc="http://purl.org/dc/elements/1.1/"
   xmlns:cc="http://creativecommons.org/ns#"
   xmlns:rdf="http://www.w3.org/1999/02/22-rdf-syntax-ns#"
   xmlns:svg="http://www.w3.org/2000/svg"
   xmlns="http://www.w3.org/2000/svg"
   xmlns:sodipodi="http://sodipodi.sourceforge.net/DTD/sodipodi-0.dtd"
   xmlns:inkscape="http://www.inkscape.org/namespaces/inkscape"
   width="42.90838623046875"
   height="39.56430816650391"
   id="svg3774"
   version="1.1"
   inkscape:version="0.48.4 r9939"
   sodipodi:docname="CHB.svg"
   inkscape:export-filename="/home/marcus/HistoGlobe/master/planning/test3_interaction/toolbar.png"
   inkscape:export-xdpi="300"
   inkscape:export-ydpi="300">
  <defs
     id="defs3776">
    <marker
       inkscape:stockid="DotL"
       orient="auto"
       refY="0"
       refX="0"
       id="DotL"
       style="overflow:visible">
      <path
         id="path3895"
         d="M -2.5,-1 C -2.5,1.76 -4.740000000000001,4 -7.5,4 C -10.26,4 -12.5,1.76 -12.5,-1 C -12.5,-3.76 -10.26,-6 -7.5,-6 C -4.740000000000001,-6 -2.5,-3.76 -2.5,-1 z"
         style="fill-rule:evenodd;stroke:#000000;stroke-width:1pt"
         transform="matrix(0.8,0,0,0.8,5.920000000000001,0.8)"
         inkscape:connector-curvature="0" />
    </marker>
  </defs>
  <sodipodi:namedview
     id="base"
     pagecolor="#000000"
     bordercolor="#666666"
     borderopacity="1.0"
     inkscape:pageopacity="1"
     inkscape:pageshadow="2"
     inkscape:zoom="15.83919185261259"
     inkscape:cx="28.32525816639373"
     inkscape:cy="25.51551035614927"
     inkscape:document-units="px"
     inkscape:current-layer="g4876"
     showgrid="true"
     inkscape:window-width="1600"
     inkscape:window-height="834"
     inkscape:window-x="0"
     inkscape:window-y="27"
     inkscape:window-maximized="1"
     fit-margin-top="0"
     fit-margin-left="0"
     fit-margin-right="0"
     fit-margin-bottom="0"
     inkscape:snap-global="true">
    <inkscape:grid
       type="xygrid"
       id="grid3009"
       empspacing="5"
       visible="true"
       enabled="true"
       snapvisiblegridlinesonly="true"
       originx="-118.5926429620388px"
       originy="4.814311137384498px" />
  </sodipodi:namedview>
  <metadata
     id="metadata3779">
    <rdf:RDF>
      <cc:Work
         rdf:about="">
        <dc:format>image/svg+xml</dc:format>
        <dc:type
           rdf:resource="http://purl.org/dc/dcmitype/StillImage" />
        <dc:title />
      </cc:Work>
    </rdf:RDF>
  </metadata>
  <g
     inkscape:label="Layer 1"
     inkscape:groupmode="layer"
     id="layer1"
     transform="translate(-132.5081505991551,-96.27808051645351)">
    <g
       id="g3842"
       transform="translate(-37.1392822265625,0)" />
    <g
       id="g4677"
       transform="translate(0,120)" />
    <g
       id="g4816"
       inkscape:export-filename="/home/marcus/HistoGlobe/master/planning/test3_interaction/toolbar_add_country.png"
       inkscape:export-xdpi="300"
       inkscape:export-ydpi="300"
       style="fill:#d5c900;fill-opacity:1;stroke:none"
       transform="matrix(0.5689364978111014,0,0,0.5689364978111014,169.0591023479016,120)" />
    <g
       id="g4874"
       transform="translate(0,120)">
      <g
         id="g4876">
        <path
           sodipodi:type="arc"
           style="fill:#D57D00;fill-opacity:1;fill-rule:nonzero;stroke:none"
           id="path4878"
           sodipodi:cx="10.00000190734863"
           sodipodi:cy="29.99999809265137"
           sodipodi:rx="10"
           sodipodi:ry="10"
           d="M 20.00000190734863,29.99999809265137 C 20.00000190734863,35.5228455909593 15.52284940565657,39.99999809265137 10.00000190734863,39.99999809265137 C 4.477154409040701,39.99999809265137 0,35.5228455909593 0,29.99999809265137 C 0,24.47715059434343 4.477154409040697,19.99999809265137 10.00000190734863,19.99999809265137 C 15.52284940565657,19.99999809265137 20.00000190734863,24.47715059434343 20.00000190734863,29.99999809265136 z"
           transform="matrix(-0.9999999999999998,0,0,0.9999999999999998,163.9155074083571,-33.97191757619786)" />
        <path
           style="font-size:medium;font-style:normal;font-variant:normal;font-weight:normal;font-stretch:normal;text-indent:0;text-align:start;text-decoration:none;line-height:normal;letter-spacing:normal;word-spacing:normal;text-transform:none;direction:ltr;block-progression:tb;writing-mode:lr-tb;text-anchor:start;baseline-shift:baseline;color:#000000;fill:#D57D00;fill-opacity:1;fill-rule:nonzero;stroke:none;stroke-width:4.4942173958;marker:none;visibility:visible;display:inline;overflow:visible;enable-background:accumulate;font-family:Sans;-inkscape-font-specification:Sans"
           d="M 1.78125,1.5 C 0.8480107505725127,1.5 0,2.231449343491278 0,3.03125 C 0,3.83105065650858 0.8480110107871039,4.5625 1.78125,4.5625 L 10.3125,4.5625 C 10.3421862344002,4.614543028282612 10.37348970761161,4.671872664644213 10.40625,4.71875 L 19.46875,21.25 L 10.40625,37.78125 C 10.37406190159261,37.82997794258609 10.3427711473721,37.88212919962028 10.3125,37.9375 L 1.78125,37.9375 C 0.848010775092888,37.9375 0,38.68443698729081 0,39.5 C 0,40.31556301270912 0.8480107505725127,41.0625 1.78125,41.0625 L 41.03125,41.0625 C 41.96448924942752,41.1053977426163 42.8571626164449,40.37806301270919 42.90625,39.5625 C 42.95533738355499,38.74693698729089 42.15198924942752,37.98039774261629 41.21875,37.9375 C 41.15630783954163,37.93462235373349 41.09369216045832,37.93462235373349 41.03125,37.9375 L 32.875,37.9375 C 32.8453137655998,37.88443131520788 32.81401029238839,37.82905118713271 32.78125,37.78125 L 23.71875,21.25 L 32.78125,4.71875 C 32.8134380984074,4.670022057413905 32.8447288526279,4.617870800379734 32.875,4.5625 L 41.03125,4.5625 C 41.96448924942752,4.604568659530404 42.8571626164449,3.924800656508694 42.90625,3.125 C 42.95533738355499,2.325199343491306 42.15198924942752,1.542068659530486 41.21875,1.5 z M 14.5625,4.5625 L 28.59375,4.5625 L 21.59375,17.375 z M 21.59375,25.125 L 28.625,37.9375 L 14.59375,37.9375 z"
           transform="translate(132.5081505991551,-25.22191948354648)"
           id="path4880"
           inkscape:connector-curvature="0"
           sodipodi:nodetypes="csscccccssccsccccccccscccccccccc" />
      </g>
    </g>
  </g>
</svg>
